 <svg  version="1.0" xmlns="http://www.w3.org/2000/svg"  width="300.000000pt" height="197.000000pt" viewBox="0 0 300.000000 197.000000"  preserveAspectRatio="xMidYMid meet">  <g transform="translate(0.000000,197.000000) scale(0.100000,-0.100000)" fill="#132df6" stroke="none"> <path d="M2965 1936 c13 -30 14 -172 11 -963 -2 -510 -7 -939 -11 -953 -8 -23 -7 -24 8 -11 16 12 17 88 17 977 0 945 0 963 -20 974 -18 10 -19 9 -5 -24z"/> <path d="M600 1231 c-8 -4 -28 -14 -45 -22 -33 -16 -34 -22 -23 -142 5 -49 11 -65 39 -93 18 -19 40 -34 50 -34 16 0 29 -52 29 -120 0 -15 10 -36 23 -48 21 -20 34 -22 134 -22 143 0 143 0 143 143 0 59 4 107 9 107 5 0 13 14 16 32 4 17 14 38 21 46 34 33 0 102 -51 102 -30 0 -65 -32 -65 -60 0 -11 9 -37 20 -57 11 -21 20 -43 20 -50 0 -7 4 -13 8 -13 5 0 9 -44 10 -97 1 -132 0 -133 -138 -133 -69 0 -110 4 -118 12 -14 14 -16 94 -2 103 6 3 10 17 10 31 0 14 6 24 14 24 18 0 59 37 74 66 6 12 12 37 12 55 1 19 2 56 3 84 2 53 6 48 -76 86 -32 15 -54 1 -43 -26 5 -13 14 -16 40 -11 52 10 66 0 66 -49 0 -25 -7 -52 -18 -66 -10 -13 -23 -36 -30 -51 -6 -16 -15 -28 -19 -29 -68 -6 -90 -3 -110 15 -13 11 -23 26 -23 34 0 8 -7 20 -15 26 -9 6 -18 34 -21 62 -6 47 -4 53 14 58 12 4 37 4 57 0 34 -6 37 -5 33 17 -3 25 -23 33 -48 20z m378 -83 c7 -7 12 -21 12 -33 0 -12 -5 -26 -12 -33 -28 -28 -78 -7 -78 33 0 12 5 26 12 33 7 7 21 12 33 12 12 0 26 -5 33 -12z m-408 -114 c0 -8 12 -26 26 -39 20 -18 23 -25 11 -25 -20 0 -57 47 -57 72 0 11 5 16 10 13 6 -3 10 -13 10 -21z m179 -40 c-12 -13 -29 -24 -37 -24 -8 0 -2 12 17 29 17 16 32 37 32 48 1 13 3 11 6 -5 3 -16 -3 -32 -18 -48z m-64 -24 c18 -20 17 -20 -18 -20 -39 0 -45 8 -25 28 16 16 22 15 43 -8z"/> <path d="M922 1138 c-18 -18 -15 -36 7 -48 15 -7 23 -6 35 6 12 12 13 20 6 35 -12 22 -30 25 -48 7z"/> <path d="M1118 1126 c-22 -11 -23 -18 -26 -123 -3 -144 1 -149 128 -143 19 0 47 10 62 21 33 23 46 24 69 3 34 -31 85 -34 133 -9 38 20 45 21 58 8 25 -25 81 -32 128 -16 30 10 45 12 53 4 15 -15 50 -14 65 1 9 9 17 9 36 -2 20 -10 31 -10 54 -1 24 10 34 10 51 -1 18 -11 26 -11 50 3 24 14 32 14 52 3 33 -19 95 -17 125 3 24 15 27 15 54 0 36 -22 99 -22 129 -1 21 15 25 15 54 -1 58 -31 118 -1 89 45 -15 24 -16 61 -1 93 9 20 7 31 -15 66 -33 52 -68 56 -91 11 -16 -30 -17 -31 -74 -24 -47 5 -65 3 -88 -11 -27 -16 -32 -16 -61 -1 -35 18 -88 21 -126 6 -23 -8 -26 -7 -26 11 0 40 -19 59 -59 59 -38 0 -61 -16 -75 -54 -5 -15 -9 -16 -21 -6 -8 7 -15 17 -15 22 0 20 -30 38 -62 38 -37 0 -58 -15 -58 -41 0 -26 -15 -31 -60 -19 -36 10 -47 8 -84 -9 -51 -25 -60 -26 -77 -5 -10 12 -26 15 -69 11 -30 -2 -62 -7 -70 -11 -11 -4 -21 3 -33 24 -10 16 -26 34 -36 40 -29 15 -136 19 -163 6z m164 -45 c28 -25 32 -35 32 -78 0 -91 -38 -123 -145 -123 l-59 0 0 115 0 115 70 0 c63 0 73 -3 102 -29z m543 -43 c12 -37 24 -70 27 -73 2 -3 15 29 27 70 l22 75 39 0 40 0 -2 -115 -1 -115 -26 0 -26 0 2 82 2 83 -28 -80 c-21 -62 -32 -81 -48 -83 -18 -3 -25 8 -48 77 -15 45 -28 81 -31 81 -2 0 -1 -36 3 -80 l6 -80 -27 0 -26 0 0 116 0 115 37 -3 c37 -3 38 -4 58 -70z m615 37 c0 -16 6 -25 15 -25 8 0 15 -9 15 -20 0 -13 -5 -18 -15 -14 -12 5 -15 -4 -15 -45 0 -39 4 -51 15 -51 8 0 15 -9 15 -20 0 -15 -7 -20 -28 -20 -41 0 -52 17 -52 82 0 45 -3 58 -15 58 -8 0 -15 7 -15 15 0 8 7 15 15 15 9 0 15 9 15 25 0 20 5 25 25 25 20 0 25 -5 25 -25z m-951 -51 c12 -15 21 -41 21 -59 0 -50 -33 -85 -81 -85 -53 0 -89 35 -89 85 0 50 36 85 89 85 31 0 44 -6 60 -26z m191 6 c11 -11 20 -24 20 -30 0 -15 -40 -12 -56 5 -19 19 -29 19 -48 -1 -31 -31 -6 -104 31 -90 8 3 17 6 19 6 2 0 4 7 4 15 0 9 9 15 25 15 31 0 32 -16 3 -47 -28 -30 -85 -31 -116 -3 -16 15 -22 32 -22 65 0 33 6 50 22 65 29 27 91 27 118 0z m469 -6 c12 -15 21 -37 21 -50 0 -23 -4 -24 -60 -24 -47 0 -58 -3 -54 -14 9 -23 31 -26 68 -11 20 8 38 15 41 15 11 0 4 -17 -15 -38 -29 -31 -89 -30 -119 2 -52 55 -15 146 60 146 29 0 42 -6 58 -26z m181 4 c11 -12 20 -27 20 -34 0 -7 3 -19 6 -28 5 -14 -4 -16 -60 -16 -53 0 -64 -3 -60 -15 9 -22 38 -27 70 -10 34 17 44 19 44 5 0 -24 -41 -50 -79 -50 -48 0 -81 35 -81 85 0 18 9 44 21 59 27 34 88 37 119 4z"/> <path d="M1166 998 l2 -73 33 3 c48 5 59 18 59 68 0 48 -24 74 -70 74 -25 0 -25 -1 -24 -72z m63 13 c7 -13 6 -23 -3 -36 -16 -22 -36 -12 -36 19 0 39 22 49 39 17z"/> <path d="M1402 1008 c-17 -17 -15 -73 4 -89 33 -27 72 29 50 72 -13 28 -36 35 -54 17z"/> <path d="M2062 1008 c-20 -20 -14 -28 23 -28 37 0 49 22 19 34 -22 8 -28 8 -42 -6z"/> <path d="M2244 1003 c-17 -17 -16 -18 20 -21 45 -4 54 2 36 23 -16 20 -35 19 -56 -2z"/> <path d="M760 890 c0 -54 3 -70 14 -70 8 0 18 5 21 10 3 6 15 10 26 10 15 0 19 -7 19 -31 0 -19 4 -28 11 -23 7 4 9 21 6 40 -5 32 5 46 18 24 14 -23 25 -7 25 40 0 51 -8 61 -30 35 -7 -8 -16 -15 -21 -15 -5 0 -9 7 -9 15 0 8 -9 15 -19 15 -11 0 -23 5 -26 10 -3 6 -13 10 -21 10 -11 0 -14 -16 -14 -70z m30 0 c0 -27 -4 -50 -10 -50 -5 0 -10 23 -10 50 0 28 5 50 10 50 6 0 10 -22 10 -50z m40 -6 c0 -13 -4 -24 -10 -24 -5 0 -10 14 -10 31 0 17 4 28 10 24 6 -3 10 -17 10 -31z"/> </g> </svg> 